<svg width="181" height="63" viewBox="0 0 181 63" fill="none" xmlns="http://www.w3.org/2000/svg">
<path d="M20.6084 44.7839C20.665 45.4214 19.1156 45.8803 15.96 46.1607C12.8044 46.4411 11.1983 46.2626 11.1417 45.6251L9.00892 21.6236L3.27153 22.1335C2.72966 22.1816 2.28202 21.4825 1.92862 20.0361C1.77068 19.3434 1.65914 18.6304 1.594 17.8973C1.52885 17.1642 1.51294 16.4428 1.54625 15.733C1.63908 14.247 1.95643 13.4799 2.4983 13.4317L23.2963 11.5836C23.8382 11.5355 24.2858 12.2346 24.6393 13.681C24.7972 14.3738 24.9087 15.0867 24.9739 15.8198C25.039 16.5529 25.0549 17.2743 25.0216 17.9841C24.9288 19.4701 24.6114 20.2372 24.0696 20.2854L18.4756 20.7824L20.6084 44.7839Z" fill="#82D675"/>
<path d="M173.96 44.096C171.176 44.096 169.672 43.648 169.448 42.752L167.864 36.56H160.232L158.84 42.512C158.648 43.504 157.112 44 154.232 44C152.696 44 151.56 43.92 150.824 43.76C150.088 43.568 149.72 43.424 149.72 43.328L158.216 10.832C158.216 10.576 160.408 10.448 164.792 10.448C169.176 10.448 171.368 10.576 171.368 10.832L179.672 43.376C179.672 43.6 178.936 43.776 177.464 43.904C175.992 44.032 174.824 44.096 173.96 44.096ZM161.432 30.464H166.472L164.312 20.528H164.024L161.432 30.464Z" fill="#82D675"/>
<path d="M130.203 49.8883C130.25 50.3659 128.777 50.7527 125.784 51.0485L123.095 51.1696C121.49 51.1996 120.672 51.0554 120.64 50.7369L117.473 18.6851C117.419 18.1437 118.985 17.7157 122.169 17.4009C125.354 17.0862 126.973 17.1995 127.026 17.7409L128.235 29.9693L132.854 17.1649C133.033 16.6971 134.284 16.3483 136.609 16.1185C140.844 15.6999 143.11 15.8458 143.405 16.5562C143.411 16.6199 143.402 16.6852 143.376 16.752L136.547 32.5724L147.513 44.9458C147.519 45.0095 147.244 45.3101 146.686 45.8476C145.347 47.2662 143.726 48.4392 141.824 49.3668C141.241 49.6495 140.647 49.8208 140.042 49.8806L138.886 49.8983C137.842 49.7443 136.981 49.1701 136.304 48.1759L129.83 38.3008L129.065 38.3764L130.203 49.8883Z" fill="#82D675"/>
<path d="M101.872 38.4374L103.696 32.1686C103.814 31.7366 104.338 31.582 105.267 31.7047C106.204 31.7966 106.966 31.9231 107.552 32.0843L109.319 32.7197C110.44 33.2273 110.937 33.7125 110.81 34.1753L106.64 48.6104C105.905 48.8726 104.536 48.9609 102.535 48.8751C100.574 48.767 98.3896 48.382 95.983 47.72C91.5091 46.4894 88.2981 44.0463 86.3498 40.3907C84.4016 36.7351 84.1998 32.0996 85.7444 26.4841C87.0598 21.7018 89.4713 18.1833 92.9788 15.9288C96.4863 13.6743 100.616 13.2006 105.367 14.5075C107.527 15.1016 109.412 15.8522 111.021 16.7595C112.669 17.6443 113.719 18.5307 114.172 19.4185C114.135 19.6739 114.023 20.1409 113.837 20.8197C113.65 21.4985 113.151 22.4067 112.34 23.5445C111.538 24.6513 110.759 25.4327 110.003 25.8885C109.247 26.3443 108.73 26.5341 108.453 26.4577C108.206 26.3898 107.958 26.2054 107.709 25.9046C107.499 25.5814 106.996 25.1775 106.2 24.6931C105.412 24.1777 104.617 23.8098 103.815 23.5891C101.902 23.0629 100.174 23.2514 98.6317 24.1546C97.1197 25.0663 96.0073 26.818 95.2944 29.4097C94.5816 32.0015 94.6401 34.1416 95.4699 35.8302C96.3392 37.4964 97.5606 38.5459 99.1341 38.9787C100.739 39.42 101.651 39.2396 101.872 38.4374Z" fill="#DDB2E4"/>
<path d="M78.0079 47.2561C77.9221 47.9226 76.3876 48.0639 73.4042 47.68C70.4208 47.2962 68.8327 46.8498 68.6401 46.3411L62.6009 30.4645L60.6958 45.2705C60.6222 45.8417 59.1097 45.9375 56.158 45.5577C53.2381 45.182 51.8149 44.7085 51.8884 44.1372L55.9866 12.2878C56.0479 11.8117 57.3321 11.735 59.8395 12.0576C60.8234 12.1842 61.9537 12.4264 63.2305 12.7843C64.543 13.1145 65.3115 13.536 65.5359 14.0489L71.2663 29.6921L73.1899 14.7434C73.2675 14.1403 74.7821 14.0287 77.7338 14.4085C80.6854 14.7883 82.1225 15.2798 82.0449 15.8828L78.0079 47.2561Z" fill="#DDB2E4"/>
<path d="M45.96 52.096C43.176 52.096 41.672 51.648 41.448 50.752L39.864 44.56H32.232L30.84 50.512C30.648 51.504 29.112 52 26.232 52C24.696 52 23.56 51.92 22.824 51.76C22.088 51.568 21.72 51.424 21.72 51.328L30.216 18.832C30.216 18.576 32.408 18.448 36.792 18.448C41.176 18.448 43.368 18.576 43.368 18.832L51.672 51.376C51.672 51.6 50.936 51.776 49.464 51.904C47.992 52.032 46.824 52.096 45.96 52.096ZM33.432 38.464H38.472L36.312 28.528H36.024L33.432 38.464Z" fill="#82D675"/>
</svg>
